<svg preserveAspectRatio="none" overflow="visible" style="display: block;" width="17.2685" height="12.67" viewBox="0 0 17.2685 12.67" fill="none" xmlns="http://www.w3.org/2000/svg">
<g id="Vector">
<path d="M14.7403 0.230007C14.4338 -0.0766035 13.9367 -0.0766785 13.6301 0.229839C13.3235 0.536357 13.3234 1.0334 13.6299 1.34001C14.9544 2.6649 15.6985 4.4616 15.6985 6.335C15.6985 8.2084 14.9544 10.0051 13.6299 11.33C13.3234 11.6366 13.3235 12.1336 13.6301 12.4402C13.9367 12.7467 14.4338 12.7466 14.7403 12.44C16.3591 10.8207 17.2685 8.62471 17.2685 6.335C17.2685 4.04529 16.3591 1.84932 14.7403 0.230007Z" fill="white" style="fill:white;fill-opacity:1;"/>
<path d="M11.9692 3.00108C11.6627 2.69447 11.1657 2.69439 10.859 3.00091C10.5524 3.30743 10.5524 3.80447 10.8589 4.11108C11.4475 4.69992 11.7782 5.49845 11.7782 6.33108C11.7782 7.1637 11.4475 7.96223 10.8589 8.55107C10.5524 8.85768 10.5524 9.35472 10.859 9.66124C11.1657 9.96776 11.6627 9.96768 11.9692 9.66107C12.8522 8.77781 13.3482 7.58001 13.3482 6.33108C13.3482 5.08214 12.8522 3.88434 11.9692 3.00108Z" fill="white" style="fill:white;fill-opacity:1;"/>
<path fill-rule="evenodd" clip-rule="evenodd" d="M8.63507 0.839921C8.63507 0.538161 8.4621 0.263112 8.19012 0.132393C7.91814 0.00167334 7.59531 0.0384261 7.35967 0.226934L3.64967 3.19494H0.785006C0.351459 3.19494 0 3.5464 0 3.97995V8.68998C0 9.12353 0.351459 9.47499 0.785006 9.47499H3.64967L7.35967 12.443C7.59531 12.6315 7.91814 12.6683 8.19012 12.5375C8.4621 12.4068 8.63507 12.1318 8.63507 11.83V0.839921ZM4.41542 4.59293L7.06506 2.47322V10.1967L4.41542 8.077C4.27623 7.96564 4.10328 7.90498 3.92503 7.90498H1.57001V4.76495H3.92503C4.10328 4.76495 4.27623 4.70429 4.41542 4.59293Z" fill="white" style="fill:white;fill-opacity:1;"/>
</g>
</svg>
