<svg width="39" height="42" viewBox="0 0 39 42" fill="none" xmlns="http://www.w3.org/2000/svg">
<path fill-rule="evenodd" clip-rule="evenodd" d="M11.4491 17.1935H32.4393C35.5878 17.1935 38.1638 19.7696 38.1638 22.9181V36.2754C38.1638 39.443 35.5878 42 32.4393 42H5.72457C2.57606 42 0 39.4239 0 36.2754V22.9181C0 19.7696 2.57606 17.1935 5.72457 17.1935H7.63276V11.4689C7.63276 8.6257 8.68227 5.89699 10.5905 3.77889C12.4987 1.6608 15.1129 0.344149 17.937 0.0579206C20.7611 -0.228308 23.5852 0.55405 25.8751 2.23326C28.1649 3.91247 29.7296 6.39311 30.3021 9.17907C30.512 10.2095 29.8441 11.2208 28.8137 11.4307C27.7833 11.6406 26.7719 10.9728 26.562 9.94235C26.1804 8.0914 25.1309 6.45036 23.6043 5.30545C22.0778 4.17961 20.1887 3.6644 18.3186 3.85522C16.4295 4.04604 14.6931 4.92381 13.4146 6.33587C12.1361 7.74793 11.4491 9.57979 11.4491 11.4689V17.1935ZM3.81638 22.9181C3.81638 21.8686 4.67507 21.0099 5.72457 21.0099H32.4393C33.4888 21.0099 34.3474 21.8686 34.3474 22.9181V36.2754C34.3474 37.3249 33.4888 38.1836 32.4393 38.1836H5.72457C4.67507 38.1836 3.81638 37.3249 3.81638 36.2754V22.9181Z" fill="#EFF0FA" style="fill:#EFF0FA;fill:color(display-p3 0.9373 0.9412 0.9804);fill-opacity:1;"/>
</svg>
