<svg width="18" height="14" viewBox="0 0 18 14" fill="none" xmlns="http://www.w3.org/2000/svg">
<path d="M3.79307 1.39691C4.11261 1.07728 4.11253 0.559133 3.7929 0.239599C3.47327 -0.0799346 2.95512 -0.0798564 2.63559 0.239774C0.948022 1.92785 0 4.21707 0 6.60401C0 8.99095 0.948022 11.2802 2.63559 12.9682C2.95512 13.2879 3.47327 13.288 3.7929 12.9684C4.11253 12.6489 4.11261 12.1307 3.79307 11.8111C2.41234 10.43 1.63668 8.55696 1.63668 6.60401C1.63668 4.65106 2.41234 2.77806 3.79307 1.39691Z" fill="white" style="fill:white;fill-opacity:1;"/>
<path d="M15.3644 0.239774C15.0449 -0.0798564 14.5267 -0.0799346 14.2071 0.239599C13.8875 0.559133 13.8874 1.07728 14.2069 1.39691C15.5877 2.77806 16.3633 4.65106 16.3633 6.60401C16.3633 8.55696 15.5877 10.43 14.2069 11.8111C13.8874 12.1307 13.8875 12.6489 14.2071 12.9684C14.5267 13.288 15.0449 13.2879 15.3644 12.9682C17.052 11.2802 18 8.99095 18 6.60401C18 4.21707 17.052 1.92785 15.3644 0.239774Z" fill="white" style="fill:white;fill-opacity:1;"/>
<path d="M6.10857 3.70504C6.42833 3.38563 6.42862 2.86749 6.10921 2.54773C5.78981 2.22797 5.27166 2.22768 4.9519 2.54709C4.4193 3.0791 3.99678 3.71087 3.7085 4.40629C3.42023 5.1017 3.27184 5.84712 3.27184 6.59992C3.27184 7.35272 3.42023 8.09813 3.7085 8.79355C3.99678 9.48896 4.4193 10.1207 4.9519 10.6528C5.27166 10.9722 5.78981 10.9719 6.10921 10.6521C6.42862 10.3323 6.42833 9.8142 6.10857 9.4948C5.72814 9.11479 5.42634 8.66352 5.22042 8.1668C5.01451 7.67007 4.90853 7.13763 4.90853 6.59992C4.90853 6.06221 5.01451 5.52977 5.22042 5.03304C5.42634 4.53631 5.72814 4.08505 6.10857 3.70504Z" fill="white" style="fill:white;fill-opacity:1;"/>
<path d="M13.0481 2.55527C12.7283 2.23587 12.2102 2.23615 11.8908 2.55591C11.5714 2.87567 11.5717 3.39382 11.8914 3.71322C12.2719 4.09323 12.5737 4.5445 12.7796 5.04122C12.9855 5.53795 13.0915 6.07039 13.0915 6.6081C13.0915 7.14582 12.9855 7.67826 12.7796 8.17498C12.5737 8.6717 12.2719 9.12297 11.8914 9.50298C11.5717 9.82239 11.5714 10.3405 11.8908 10.6603C12.2102 10.98 12.7283 10.9803 13.0481 10.6609C13.5807 10.1289 14.0032 9.49715 14.2915 8.80173C14.5798 8.10632 14.7282 7.3609 14.7282 6.6081C14.7282 5.8553 14.5798 5.10989 14.2915 4.41447C14.0032 3.71906 13.5807 3.08728 13.0481 2.55527Z" fill="white" style="fill:white;fill-opacity:1;"/>
<path fill-rule="evenodd" clip-rule="evenodd" d="M8.99998 4.14902C7.64411 4.14902 6.54496 5.24817 6.54496 6.60404C6.54496 7.95991 7.64411 9.05906 8.99998 9.05906C10.3559 9.05906 11.455 7.95991 11.455 6.60404C11.455 5.24817 10.3559 4.14902 8.99998 4.14902ZM8.18164 6.60404C8.18164 6.15208 8.54803 5.7857 8.99998 5.7857C9.45194 5.7857 9.81832 6.15208 9.81832 6.60404C9.81832 7.05599 9.45194 7.42238 8.99998 7.42238C8.54803 7.42238 8.18164 7.05599 8.18164 6.60404Z" fill="white" style="fill:white;fill-opacity:1;"/>
</svg>
