<svg preserveAspectRatio="none" overflow="visible" style="display: block;" width="20" height="20.004" viewBox="0 0 20 20.004" fill="none" xmlns="http://www.w3.org/2000/svg">
<path id="Vector" d="M7.50001 8.50397H10C10.2652 8.50397 10.5196 8.39862 10.7071 8.21108C10.8947 8.02355 11 7.76919 11 7.50397C11 7.23876 10.8947 6.9844 10.7071 6.79687C10.5196 6.60933 10.2652 6.50397 10 6.50397H9.00001V6.00397C9.00001 5.73876 8.89465 5.4844 8.70711 5.29687C8.51958 5.10933 8.26522 5.00397 8.00001 5.00397C7.73479 5.00397 7.48044 5.10933 7.2929 5.29687C7.10537 5.4844 7.00001 5.73876 7.00001 6.00397V6.55397C6.39243 6.67735 5.85237 7.02207 5.48466 7.52124C5.11696 8.0204 4.94785 8.63839 5.01015 9.25522C5.07246 9.87206 5.36174 10.4437 5.82184 10.8593C6.28194 11.2748 6.88003 11.5046 7.50001 11.504H8.50001C8.63262 11.504 8.75979 11.5567 8.85356 11.6504C8.94733 11.7442 9.00001 11.8714 9.00001 12.004C9.00001 12.1366 8.94733 12.2638 8.85356 12.3575C8.75979 12.4513 8.63262 12.504 8.50001 12.504H6.00001C5.73479 12.504 5.48044 12.6093 5.2929 12.7969C5.10537 12.9844 5.00001 13.2388 5.00001 13.504C5.00001 13.7692 5.10537 14.0235 5.2929 14.2111C5.48044 14.3986 5.73479 14.504 6.00001 14.504H7.00001V15.004C7.00001 15.2692 7.10537 15.5235 7.2929 15.7111C7.48044 15.8986 7.73479 16.004 8.00001 16.004C8.26522 16.004 8.51958 15.8986 8.70711 15.7111C8.89465 15.5235 9.00001 15.2692 9.00001 15.004V14.454C9.60758 14.3306 10.1476 13.9859 10.5154 13.4867C10.8831 12.9875 11.0522 12.3696 10.9899 11.7527C10.9276 11.1359 10.6383 10.5642 10.1782 10.1487C9.71807 9.73312 9.11998 9.50335 8.50001 9.50397H7.50001C7.3674 9.50397 7.24022 9.4513 7.14645 9.35753C7.05269 9.26376 7.00001 9.13658 7.00001 9.00397C7.00001 8.87137 7.05269 8.74419 7.14645 8.65042C7.24022 8.55665 7.3674 8.50397 7.50001 8.50397ZM19 10.004H16V1.00397C16.0007 0.827765 15.9548 0.654498 15.867 0.501721C15.7792 0.348943 15.6526 0.222079 15.5 0.133975C15.348 0.0462063 15.1755 0 15 0C14.8245 0 14.652 0.0462063 14.5 0.133975L11.5 1.85397L8.50001 0.133975C8.34799 0.0462063 8.17554 0 8.00001 0C7.82447 0 7.65203 0.0462063 7.50001 0.133975L4.50001 1.85397L1.50001 0.133975C1.34799 0.0462063 1.17554 0 1.00001 0C0.824471 0 0.652027 0.0462063 0.500008 0.133975C0.347404 0.222079 0.220789 0.348943 0.132986 0.501721C0.0451828 0.654498 -0.000691685 0.827765 7.88288e-06 1.00397V17.004C7.88288e-06 17.7996 0.316078 18.5627 0.878688 19.1253C1.4413 19.6879 2.20436 20.004 3.00001 20.004H17C17.7957 20.004 18.5587 19.6879 19.1213 19.1253C19.6839 18.5627 20 17.7996 20 17.004V11.004C20 10.7388 19.8947 10.4844 19.7071 10.2969C19.5196 10.1093 19.2652 10.004 19 10.004ZM3.00001 18.004C2.73479 18.004 2.48044 17.8986 2.2929 17.7111C2.10536 17.5235 2.00001 17.2692 2.00001 17.004V2.73397L4.00001 3.87397C4.15435 3.95459 4.32589 3.99669 4.50001 3.99669C4.67413 3.99669 4.84567 3.95459 5.00001 3.87397L8.00001 2.15397L11 3.87397C11.1543 3.95459 11.3259 3.99669 11.5 3.99669C11.6741 3.99669 11.8457 3.95459 12 3.87397L14 2.73397V17.004C14.0027 17.3451 14.0636 17.6833 14.18 18.004H3.00001ZM18 17.004C18 17.2692 17.8947 17.5235 17.7071 17.7111C17.5196 17.8986 17.2652 18.004 17 18.004C16.7348 18.004 16.4804 17.8986 16.2929 17.7111C16.1054 17.5235 16 17.2692 16 17.004V12.004H18V17.004Z" fill="white"/>
</svg>
